<?xml version="1.0" encoding="iso-8859-1"?>
<!-- Uploaded to: SVG Repo, www.svgrepo.com, Generator: SVG Repo Mixer Tools -->
<svg height="800px" width="800px" version="1.1" id="Layer_1" xmlns="http://www.w3.org/2000/svg" xmlns:xlink="http://www.w3.org/1999/xlink" 
	 viewBox="0 0 496.2 496.2" xml:space="preserve">
<path style="fill:#F1F0EE;" d="M496.2,248.1C496.2,111.1,385.1,0,248.1,0S0,111.1,0,248.1s111.1,248.1,248.1,248.1
	S496.2,385.1,496.2,248.1z"/>
<path style="fill:#9B9187;" d="M479.2,248.1C479.2,120.5,375.7,17,248.1,17C120.5,17,17,120.5,17,248.1s103.5,231.1,231.1,231.1
	S479.2,375.7,479.2,248.1z"/>
<g>
	<path style="fill:#F1F0EE;" d="M478.2,248.1C478.2,248.1,478.2,248.2,478.2,248.1h18C496.2,111.1,385.1,0,248.1,0v18
		C375.2,18,478.2,121,478.2,248.1z"/>
	<path style="fill:#F1F0EE;" d="M18.1,248L18.1,248h-18c0,137,111.1,248.1,248.1,248.1v-18C121.1,478.1,18.1,375.1,18.1,248z"/>
</g>
<g>
	<path style="fill:#685F56;" d="M248.1,478.1L248.1,478.1v18c137,0,248.1-111.1,248.1-248.1h-18
		C478.2,375.1,375.2,478.1,248.1,478.1z"/>
	<path style="fill:#685F56;" d="M248.2,18L248.2,18V0C111.2,0,0.1,111.1,0.1,248.1h18C18.1,121,121.1,18,248.2,18z"/>
</g>
<path style="fill:#3A3A38;" d="M228.1,334.2V200.9c-24.8,19-41.5,28.6-50.1,28.6c-4.1,0-7.7-1.6-10.9-4.9c-3.2-3.3-4.8-7.1-4.8-11.4
	c0-5,1.6-8.6,4.7-11c3.1-2.3,8.6-5.4,16.6-9.1c11.8-5.6,21.3-11.4,28.3-17.6c7.1-6.2,13.4-13,18.8-20.7c5.5-7.6,9-12.3,10.7-14.1
	s4.8-2.6,9.4-2.6c5.2,0,9.3,2,12.5,6c3.1,4,4.7,9.5,4.7,16.6v167.7c0,19.6-6.7,29.4-20.1,29.4c-6,0-10.7-2-14.4-6
	C229.9,348,228.1,342,228.1,334.2z"/>
<path style="fill:#AFA79E;" d="M496.1,245.6H250.6V0.1c-0.8,0-1.7,0-2.5,0c-0.8,0-1.7,0-2.5,0v245.5H0.1c0,0.8,0,1.7,0,2.5
	c0,0.8,0,1.7,0,2.5h245.5v245.5c0.8,0,1.7,0,2.5,0c0.8,0,1.7,0,2.5,0V250.6h245.5c0-0.8,0-1.7,0-2.5
	C496.2,247.3,496.2,246.4,496.1,245.6z"/>
</svg>